<?xml version="1.0" standalone="no"?>
<!DOCTYPE svg PUBLIC "-//W3C//DTD SVG 20010904//EN"
 "http://www.w3.org/TR/2001/REC-SVG-20010904/DTD/svg10.dtd">
<svg version="1.0" xmlns="http://www.w3.org/2000/svg"
 width="1200.000000pt" height="1200.000000pt" viewBox="0 0 1200.000000 1200.000000"
 preserveAspectRatio="xMidYMid meet">
<metadata>
Created by potrace 1.15, written by Peter Selinger 2001-2017
</metadata>
<g transform="translate(0.000000,1200.000000) scale(0.100000,-0.100000)"
fill="#000000" stroke="none">
<path d="M0 6000 l0 -6000 6000 0 6000 0 0 6000 0 6000 -6000 0 -6000 0 0
-6000z m7598 1188 l2 -1578 -1585 0 -1585 0 0 1573 c0 866 3 1577 7 1580 3 4
716 6 1582 5 l1576 -3 3 -1577z m-2706 -2696 c5 -5 5 -41 2 -80 -7 -69 -8 -71
-30 -66 -37 9 -92 -5 -114 -28 -15 -16 -20 -36 -20 -75 l0 -53 70 0 70 0 0
-70 0 -70 -70 0 -70 0 -2 -287 -3 -288 -97 -3 -98 -3 0 291 0 290 -55 0 -55 0
0 70 0 70 55 0 55 0 0 53 c0 171 113 275 284 263 38 -3 73 -9 78 -14z m-651
-50 c26 -24 32 -36 32 -72 0 -37 -5 -48 -33 -73 -29 -26 -38 -29 -83 -24 -65
6 -97 39 -97 98 0 91 111 134 181 71z m2553 -31 c40 -19 77 -47 96 -70 34 -44
75 -130 84 -178 l6 -33 -100 0 -99 0 -12 41 c-25 83 -103 128 -198 114 -64 -9
-114 -44 -140 -99 -44 -94 -52 -293 -16 -414 39 -130 181 -186 323 -127 l32
14 0 85 0 85 -87 3 -88 3 -3 73 -3 72 196 0 195 0 0 -194 0 -194 -37 -30 c-98
-77 -207 -107 -355 -100 -119 6 -190 33 -261 98 -100 91 -137 197 -137 391 0
64 5 140 10 170 24 126 106 241 206 290 70 34 100 38 216 35 97 -2 112 -5 172
-35z m-3314 -376 l0 -405 210 0 210 0 0 -80 0 -80 -310 0 -310 0 0 485 0 485
100 0 100 0 0 -405z m5008 373 c6 -18 88 -237 180 -485 l169 -453 -108 0 -108
0 -32 100 -33 100 -172 0 -173 0 -32 -100 -33 -100 -108 0 -107 0 13 38 c8 20
86 233 175 472 89 239 163 441 166 448 3 8 32 12 98 12 l93 0 12 -32z m-745
-5 c119 -55 187 -153 190 -274 2 -102 -18 -155 -83 -221 -78 -78 -143 -98
-321 -98 l-129 0 0 -170 0 -170 -105 0 -105 0 0 481 0 480 253 -3 c236 -3 255
-4 300 -25z m-2283 -224 c114 -50 179 -178 180 -351 l0 -58 -231 0 -230 0 6
-22 c25 -85 82 -128 166 -128 68 0 104 12 141 47 14 14 30 24 35 22 5 -2 28
-26 52 -52 l44 -48 -34 -35 c-105 -109 -325 -126 -460 -37 -47 31 -104 105
-124 163 -34 96 -27 240 15 336 37 86 133 165 221 184 61 13 165 3 219 -21z
m-1192 -351 l2 -358 -100 0 -100 0 0 360 0 361 98 -3 97 -3 3 -357z"/>
<path d="M4510 7190 l0 -1500 1505 0 1505 0 0 1500 0 1500 -1505 0 -1505 0 0
-1500z m1390 520 l0 -450 -135 0 -135 0 0 450 0 450 135 0 135 0 0 -450z m890
225 l24 -26 -729 -729 c-402 -402 -734 -730 -739 -730 -5 0 -20 10 -33 22
l-24 22 733 733 c403 403 736 733 739 733 3 0 16 -11 29 -25z m-1512 -347 l-3
-323 -137 -3 -138 -3 0 326 0 325 140 0 140 0 -2 -322z m312 -113 l0 -216
-137 3 -138 3 -3 213 -2 212 140 0 140 0 0 -215z m1050 -845 l0 -270 140 0
140 0 0 -55 0 -55 -210 0 -210 0 0 325 0 325 70 0 70 0 0 -270z"/>
<path d="M5670 7710 l0 -410 95 0 95 0 0 410 0 410 -95 0 -95 0 0 -410z"/>
<path d="M5040 7585 l0 -285 95 0 95 0 0 285 0 285 -95 0 -95 0 0 -285z"/>
<path d="M5352 7478 l3 -173 98 -3 97 -3 0 176 0 175 -100 0 -100 0 2 -172z"/>
<path d="M8327 4015 c-32 -94 -57 -173 -57 -178 0 -4 52 -7 116 -7 105 0 115
2 110 18 -3 9 -30 89 -59 177 l-54 160 -56 -170z"/>
<path d="M7400 4120 l0 -152 118 4 c134 4 170 17 196 72 21 45 20 91 -3 143
-31 66 -57 77 -193 82 l-118 3 0 -152z"/>
<path d="M5263 4035 c-33 -14 -73 -77 -73 -115 0 -19 6 -20 125 -20 l125 0 0
30 c0 46 -27 90 -65 106 -42 17 -71 17 -112 -1z"/>
</g>
</svg>
